<svg width="346" height="238" viewBox="0 0 346 238" fill="none" xmlns="http://www.w3.org/2000/svg">
<path d="M203.169 199.097H293.301C293.301 199.097 296.617 179.499 272.2 187.941C313.498 146.936 254.415 137.006 232.409 183.72C226.38 168.644 198.518 189.448 203.169 199.097Z" fill="#3C4328"/>
<mask id="mask0_4_39" style="mask-type:luminance" maskUnits="userSpaceOnUse" x="202" y="152" width="92" height="48">
<path fill-rule="evenodd" clip-rule="evenodd" d="M203.169 199.097H293.301C293.301 199.097 296.617 179.499 272.2 187.941C313.498 146.936 254.415 137.006 232.409 183.72C226.38 168.644 198.518 189.448 203.169 199.097Z" fill="white"/>
</mask>
<g mask="url(#mask0_4_39)">
<path d="M297.758 188.242C297.758 194.574 200.692 199.097 200.692 199.097L276.958 212.664L303.786 199.097" fill="#3C4328"/>
<path d="M234.454 166.459L232.409 183.72C232.409 183.72 261.358 148.033 284.645 152.723C307.931 157.413 253.671 142.941 253.671 142.941L241.01 152.723" fill="#3C4328"/>
</g>
<path d="M337.343 53.7184C310.274 52.6056 325.352 81.8318 275.151 88.0288C224.949 94.2259 273.184 133.431 219.245 146.389C160.687 160.456 212.865 181.318 212.865 181.318C280.438 203.954 238.713 158.881 268.154 151.059C344.206 130.854 302.841 102.946 320.596 89.3916C363.621 56.5453 337.343 53.7184 337.343 53.7184Z" fill="#3C4328"/>
<mask id="mask1_4_39" style="mask-type:luminance" maskUnits="userSpaceOnUse" x="191" y="53" width="155" height="135">
<path fill-rule="evenodd" clip-rule="evenodd" d="M337.343 53.7184C310.274 52.6056 325.352 81.8318 275.151 88.0288C224.949 94.2259 273.184 133.431 219.245 146.389C160.687 160.456 212.865 181.318 212.865 181.318C280.438 203.954 238.713 158.881 268.154 151.059C344.206 130.854 302.841 102.946 320.596 89.3916C363.621 56.5453 337.343 53.7184 337.343 53.7184Z" fill="white"/>
</mask>
<g mask="url(#mask1_4_39)">
<path d="M297.811 44.956C365.673 52.0779 332.686 83.2157 316.389 95.0403C300.092 106.865 315.821 133.575 287.827 144.707C259.832 155.84 252.417 184.311 252.417 184.311L354.401 149.618L387.946 90.2456L369.43 49.3156L321.941 39.8694" fill="#3C4328"/>
<path d="M291.315 74.4232C240.584 105.54 273.237 138.192 219.245 146.389C165.253 154.586 216.358 186.887 216.358 186.887L160.113 170.765C160.113 170.765 193.195 108.18 193.085 107.766C192.975 107.352 259.575 72.1707 259.575 72.1707L289.651 81.9747" fill="#3C4328"/>
</g>
<path d="M200.485 189.884L205.107 190.904C205.107 190.904 326.238 75.4979 318.677 77.8778L200.485 189.884Z" fill="#3C4328"/>
<path d="M294.145 123.679L263.369 133.86L261.441 136.998L295.702 125.394C296.018 125.287 296.228 125.086 296.282 124.838C296.453 124.066 295.135 123.351 294.145 123.679Z" fill="#3C4328"/>
<path d="M274.27 100.51L270.399 124.815L273.663 123.853L277.01 101.035C277.047 100.784 276.923 100.515 276.668 100.291C275.873 99.5936 274.394 99.7286 274.27 100.51Z" fill="#3C4328"/>
<path d="M230.398 148.124L228.889 163.571L230.887 163.007L232.125 148.501C232.124 148.312 232.035 148.134 231.884 148.021C231.363 147.564 230.447 147.627 230.398 148.124Z" fill="#3C4328"/>
<path d="M248.935 166.397L227.623 169.155L228.279 167.737L248.303 165.268C248.535 165.243 248.77 165.281 248.983 165.378C249.65 165.68 249.62 166.308 248.935 166.397Z" fill="#3C4328"/>
<path d="M208.078 75.8823L207.421 81.9645C207.392 82.2329 207.568 82.5769 207.751 82.7598C208.19 83.1991 208.902 83.1991 209.341 82.7598C209.539 82.5402 209.655 82.2595 209.67 81.9645L210.327 75.8823C210.356 75.6139 210.181 75.27 209.998 75.087C209.559 74.6478 208.847 74.6478 208.407 75.087C208.21 75.3066 208.094 75.5873 208.078 75.8823Z" fill="#3C4328"/>
<path d="M218.085 72.0565C217.922 74.129 217.702 76.1959 217.425 78.2571L217.466 77.9581C217.448 78.0857 217.431 78.2133 217.413 78.3409C217.367 78.4859 217.36 78.6408 217.393 78.7894C217.4 78.9382 217.446 79.0825 217.527 79.2075C217.677 79.4652 217.924 79.6524 218.212 79.7281C218.501 79.8038 218.808 79.7617 219.065 79.611C219.293 79.4645 219.543 79.2202 219.582 78.9389C219.897 76.652 220.153 74.358 220.334 72.0565C220.334 71.6016 220.06 71.1915 219.64 71.0174C219.22 70.8433 218.736 70.9395 218.415 71.2612C218.214 71.4791 218.098 71.7608 218.085 72.0565H218.085Z" fill="#3C4328"/>
<path d="M229.181 69.2495C229.484 69.7384 229.749 70.2499 229.974 70.7794L229.86 70.5108C230.252 71.4437 230.519 72.424 230.655 73.4265L230.615 73.1275C230.749 74.1302 230.75 75.1462 230.618 76.1491L230.659 75.8501C230.606 76.2352 230.534 76.6173 230.442 76.9949C230.367 77.2876 230.408 77.5979 230.555 77.8616C230.705 78.1134 230.945 78.2984 231.227 78.3784C231.807 78.5105 232.461 78.2044 232.61 77.5929C233.216 75.1131 233.044 72.5069 232.118 70.1284C231.846 69.4289 231.513 68.7549 231.123 68.1142C230.971 67.8643 230.731 67.68 230.451 67.5973C230.158 67.5195 229.847 67.5602 229.584 67.7107C229.084 68.0336 228.849 68.7147 229.181 69.2495H229.181Z" fill="#3C4328"/>
<path d="M242.714 65.8054V71.0411C242.717 71.3387 242.835 71.6234 243.043 71.8364C243.365 72.1581 243.848 72.2543 244.269 72.0802C244.689 71.9062 244.963 71.496 244.963 71.0411V65.8054C244.959 65.5078 244.841 65.2231 244.633 65.0101C244.312 64.6884 243.828 64.5921 243.408 64.7662C242.988 64.9403 242.714 65.3504 242.714 65.8054H242.714Z" fill="#3C4328"/>
<path d="M255.071 63.4057C255.345 64.1456 255.537 64.9132 255.643 65.6949L255.603 65.3959C255.718 66.2631 255.728 67.1411 255.631 68.0106C255.601 68.2783 255.778 68.6236 255.961 68.8059C256.4 69.2451 257.112 69.2451 257.551 68.8059L257.727 68.5783C257.827 68.4061 257.88 68.2102 257.88 68.0106C258.071 66.2501 257.852 64.4694 257.24 62.8077C257.154 62.5287 256.971 62.29 256.723 62.1356C256.465 61.9849 256.159 61.9428 255.87 62.0185C255.582 62.0942 255.335 62.2814 255.184 62.5391C255.05 62.7935 254.967 63.1249 255.071 63.4057H255.071Z" fill="#3C4328"/>
<path d="M262.561 61.3347C263.709 63.8618 264.973 66.3315 266.353 68.7439C266.739 69.419 267.135 70.0888 267.539 70.7535C267.691 71.0036 267.93 71.188 268.211 71.2704C268.503 71.3482 268.815 71.3074 269.077 71.157C269.582 70.8315 269.808 70.1561 269.481 69.6181C268.04 67.2462 266.711 64.8106 265.495 62.3113C265.155 61.6117 264.825 60.9077 264.503 60.1994C264.393 59.958 264.076 59.75 263.831 59.6825C263.539 59.6047 263.227 59.6455 262.965 59.7959C262.712 59.9448 262.527 60.1857 262.448 60.4681L262.408 60.7671C262.407 60.9666 262.46 61.1626 262.561 61.3347H262.561Z" fill="#3C4328"/>
<path d="M24.7012 146.672C20.3806 140.228 30.2822 110.464 34.8187 109.996C50.9939 108.324 115.905 140.949 136.428 146.762C156.95 152.575 139.289 169.418 139.289 169.418L100.864 177.408L24.7012 146.672Z" fill="#3C4328"/>
<mask id="mask2_4_39" style="mask-type:luminance" maskUnits="userSpaceOnUse" x="23" y="109" width="124" height="69">
<path fill-rule="evenodd" clip-rule="evenodd" d="M24.7012 146.672C20.3806 140.228 30.2822 110.464 34.8187 109.996C50.9939 108.324 115.905 140.949 136.428 146.762C156.95 152.575 139.289 169.418 139.289 169.418L100.864 177.408L24.7012 146.672Z" fill="white"/>
</mask>
<g mask="url(#mask2_4_39)">
<path d="M139.289 169.418C105.461 161.733 76.4218 143.671 76.4218 143.671L90.9054 174.348L141.432 181.589L137.69 175.966" fill="#3C4328"/>
<g opacity="0.1">
<path fill-rule="evenodd" clip-rule="evenodd" d="M-9.65509 109.625H178.139H-9.65509Z" fill="#3C4328"/>
<path d="M-9.65509 109.625H178.139" stroke="#3C4328" stroke-width="2.02522"/>
</g>
<g opacity="0.1">
<path fill-rule="evenodd" clip-rule="evenodd" d="M-9.33612 126.301H178.458H-9.33612Z" fill="#3C4328"/>
<path d="M-9.33612 126.301H178.458" stroke="#3C4328" stroke-width="2.02522"/>
</g>
<g opacity="0.1">
<path fill-rule="evenodd" clip-rule="evenodd" d="M-9.01715 142.976H178.777H-9.01715Z" fill="#3C4328"/>
<path d="M-9.01715 142.976H178.777" stroke="#3C4328" stroke-width="2.02522"/>
</g>
<g opacity="0.1">
<path fill-rule="evenodd" clip-rule="evenodd" d="M-8.69812 159.651H179.096H-8.69812Z" fill="#3C4328"/>
<path d="M-8.69812 159.651H179.096" stroke="#3C4328" stroke-width="2.02522"/>
</g>
<g opacity="0.1">
<path fill-rule="evenodd" clip-rule="evenodd" d="M-8.37915 176.327H179.415H-8.37915Z" fill="#3C4328"/>
<path d="M-8.37915 176.327H179.415" stroke="#3C4328" stroke-width="2.02522"/>
</g>
<g opacity="0.1">
<path fill-rule="evenodd" clip-rule="evenodd" d="M86.3402 235.145L82.8405 52.1971L86.3402 235.145Z" fill="#3C4328"/>
<path d="M86.3402 235.145L82.8405 52.1971" stroke="#3C4328" stroke-width="2.02522"/>
</g>
<g opacity="0.1">
<path fill-rule="evenodd" clip-rule="evenodd" d="M104.362 235.145L100.863 52.197L104.362 235.145Z" fill="#3C4328"/>
<path d="M104.362 235.145L100.863 52.197" stroke="#3C4328" stroke-width="2.02522"/>
</g>
<g opacity="0.1">
<path fill-rule="evenodd" clip-rule="evenodd" d="M122.384 235.145L118.885 52.1971L122.384 235.145Z" fill="#3C4328"/>
<path d="M122.384 235.145L118.885 52.1971" stroke="#3C4328" stroke-width="2.02522"/>
</g>
<g opacity="0.1">
<path fill-rule="evenodd" clip-rule="evenodd" d="M140.407 235.145L136.907 52.197L140.407 235.145Z" fill="#3C4328"/>
<path d="M140.407 235.145L136.907 52.197" stroke="#3C4328" stroke-width="2.02522"/>
</g>
<g opacity="0.1">
<path fill-rule="evenodd" clip-rule="evenodd" d="M32.2736 235.145L28.7739 52.197L32.2736 235.145Z" fill="#3C4328"/>
<path d="M32.2736 235.145L28.7739 52.197" stroke="#3C4328" stroke-width="2.02522"/>
</g>
<g opacity="0.1">
<path fill-rule="evenodd" clip-rule="evenodd" d="M50.2958 235.145L46.7961 52.197L50.2958 235.145Z" fill="#3C4328"/>
<path d="M50.2958 235.145L46.7961 52.197" stroke="#3C4328" stroke-width="2.02522"/>
</g>
<g opacity="0.1">
<path fill-rule="evenodd" clip-rule="evenodd" d="M68.318 235.145L64.8183 52.197L68.318 235.145Z" fill="#3C4328"/>
<path d="M68.318 235.145L64.8183 52.197" stroke="#3C4328" stroke-width="2.02522"/>
</g>
<path d="M84.928 145.494C110.729 160.422 127.428 143.671 127.428 143.671L119.41 178.433L100.864 177.408L85.8364 154.164" fill="#3C4328"/>
</g>
<path d="M96.526 71.6241C83.7111 90.0929 88.0207 124.093 88.0207 124.093L100.649 147.928C100.649 147.928 111.317 151.857 124.145 114.91C135.904 81.0404 109.341 53.1552 96.526 71.6241Z" fill="#3C4328"/>
<mask id="mask3_4_39" style="mask-type:luminance" maskUnits="userSpaceOnUse" x="87" y="65" width="41" height="84">
<path fill-rule="evenodd" clip-rule="evenodd" d="M96.5259 71.6241C83.7111 90.0929 88.0207 124.093 88.0207 124.093L100.649 147.928C100.649 147.928 111.317 151.857 124.145 114.91C135.904 81.0404 109.341 53.1552 96.5259 71.6241Z" fill="white"/>
</mask>
<g mask="url(#mask3_4_39)">
<path d="M86.3589 89.9602C88.9494 89.7225 91.5469 89.5996 94.1513 89.5916C96.7569 89.584 99.3596 89.6906 101.959 89.9115C103.426 90.0359 104.889 90.1961 106.349 90.3923L105.878 90.329C108.849 90.7296 111.796 91.2761 114.718 91.9684C117.623 92.6585 120.49 93.4921 123.317 94.4693C124.918 95.0231 126.502 95.6224 128.068 96.2673C128.464 96.43 129.083 96.2942 129.434 96.0886C129.831 95.8526 130.123 95.4735 130.249 95.0292C130.352 94.5754 130.33 94.066 130.07 93.6632L129.793 93.3044C129.576 93.0872 129.307 92.9301 129.011 92.8485C126.416 91.7815 123.775 90.8384 121.088 90.0191C118.392 89.1978 115.661 88.5043 112.896 87.9389C110.02 87.3504 107.113 86.9048 104.195 86.5838C101.399 86.2763 98.5924 86.1004 95.7756 86.0563C92.9807 86.0133 90.1879 86.103 87.3973 86.3253C87.051 86.353 86.7049 86.3829 86.3589 86.4148C85.8795 86.4587 85.4566 86.583 85.1057 86.934C84.7759 87.2682 84.5896 87.7179 84.5865 88.1875C84.6071 88.6459 84.7576 89.1214 85.1057 89.441C85.4338 89.7423 85.8969 90.0026 86.3589 89.9602L86.3589 89.9602Z" fill="#3C4328"/>
<path d="M85.3522 106.161C87.3953 106.35 89.4338 106.581 91.4678 106.854L90.9967 106.79C95.8857 107.449 100.734 108.348 105.542 109.488C110.318 110.621 115.03 111.988 119.68 113.588C122.303 114.491 124.9 115.468 127.469 116.517C127.866 116.679 128.483 116.544 128.835 116.338C129.232 116.102 129.523 115.723 129.65 115.279C129.753 114.825 129.731 114.315 129.471 113.913L129.194 113.554C128.977 113.337 128.708 113.18 128.412 113.098C125.756 112.015 123.072 111.008 120.357 110.078C117.644 109.15 114.905 108.3 112.141 107.529C109.378 106.758 106.596 106.068 103.792 105.457C100.991 104.847 98.1743 104.317 95.3414 103.869C92.3818 103.401 89.4101 103.018 86.4262 102.718C86.0683 102.683 85.7103 102.648 85.3522 102.615C84.9247 102.576 84.3919 102.841 84.0989 103.134C83.7692 103.469 83.5829 103.918 83.5798 104.388C83.6004 104.846 83.7509 105.322 84.0989 105.641C84.4436 105.955 84.8868 106.139 85.3522 106.161H85.3522Z" fill="#3C4328"/>
</g>
<path d="M87.3252 110.303C87.3252 110.303 110.581 120.277 112.591 139.685C112.591 139.685 109.187 151.108 103.709 146.72C98.2303 142.332 98.2233 125.961 89.5813 119.298C80.9392 112.634 87.3252 110.303 87.3252 110.303Z" fill="#3C4328"/>
<path d="M112.591 139.685C179.155 176.528 219.735 115.789 197.563 98.7558C159.361 69.4072 203.427 55.6889 141.194 50.3034C141.194 50.3034 106.844 62.3385 99.2354 68.583C91.6273 74.8276 112.591 139.685 112.591 139.685Z" fill="#3C4328"/>
<mask id="mask4_4_39" style="mask-type:luminance" maskUnits="userSpaceOnUse" x="97" y="50" width="107" height="102">
<path fill-rule="evenodd" clip-rule="evenodd" d="M112.591 139.685C179.155 176.528 219.735 115.789 197.563 98.7558C159.361 69.4072 203.427 55.6889 141.194 50.3034C141.194 50.3034 106.844 62.3385 99.2354 68.583C91.6273 74.8276 112.591 139.685 112.591 139.685Z" fill="white"/>
</mask>
<g mask="url(#mask4_4_39)">
<path d="M98.6753 95.5701C102.559 97.0213 106.771 97.3574 110.883 97.4658C115.183 97.5792 119.488 97.5713 123.788 97.5341C128.124 97.4966 132.458 97.4001 136.792 97.2448C140.667 97.1058 144.557 96.9925 148.395 96.393C151.854 95.8527 155.374 94.8034 158.245 92.7383C158.691 92.4176 159.126 92.0791 159.546 91.7247C159.875 91.4463 160.065 90.8874 160.065 90.4712C160.061 90.0018 159.875 89.5521 159.546 89.2177C158.789 88.5231 157.798 88.5772 157.039 89.2177C156.957 89.2872 156.874 89.3561 156.791 89.4242C156.69 89.5057 156.371 89.7404 156.824 89.4036C156.677 89.513 156.531 89.6239 156.382 89.7301C156.047 89.9679 155.703 90.192 155.35 90.4024C154.656 90.8136 153.935 91.1771 153.192 91.4904L153.615 91.3117C151.365 92.2566 148.968 92.7791 146.556 93.1039L147.027 93.0405C144.685 93.3507 142.325 93.4746 139.967 93.5749C137.086 93.6974 134.204 93.7938 131.322 93.8641C125.593 94.0039 119.863 94.0408 114.131 93.9749C111.101 93.9401 108.061 93.9052 105.051 93.5095L105.523 93.5728C103.507 93.3211 101.527 92.8443 99.6177 92.1513C99.2093 91.9987 98.6152 92.1175 98.252 92.33C97.8551 92.5661 97.5636 92.9452 97.4375 93.3895C97.2083 94.3958 97.7437 95.222 98.6754 95.5701L98.6753 95.5701Z" fill="#3C4328"/>
<path d="M100.083 107.13C104.429 107.924 108.801 108.56 113.198 109.036C117.492 109.504 121.799 109.814 126.12 109.967C130.41 110.118 134.702 110.113 138.996 109.953C143.3 109.791 147.595 109.472 151.879 108.994C156.247 108.507 160.593 107.863 164.919 107.062C165.455 106.962 165.99 106.86 166.524 106.755C167.436 106.576 168.041 105.437 167.762 104.574C167.448 103.604 166.559 103.144 165.582 103.336C163.505 103.743 161.42 104.113 159.329 104.444C158.273 104.612 157.215 104.769 156.155 104.917C155.906 104.952 155.656 104.983 155.407 105.02C155.407 105.02 155.771 104.971 155.566 104.998C155.504 105.006 155.442 105.015 155.379 105.023C155.213 105.045 155.046 105.067 154.88 105.088C154.36 105.155 153.839 105.22 153.318 105.283C149.084 105.79 144.835 106.143 140.571 106.341C136.305 106.539 132.035 106.583 127.761 106.471C123.486 106.36 119.219 106.094 114.959 105.674C113.91 105.57 112.862 105.457 111.815 105.335C111.271 105.271 110.727 105.205 110.183 105.136C109.932 105.104 109.681 105.072 109.43 105.039C109.305 105.023 109.179 105.006 109.054 104.99C109.005 104.983 108.786 104.954 109.038 104.988C109.303 105.023 109.012 104.984 108.961 104.977C106.829 104.687 104.703 104.357 102.583 103.989C102.063 103.899 101.544 103.806 101.025 103.711C100.548 103.624 100.091 103.637 99.6595 103.89C99.2626 104.126 98.9712 104.505 98.845 104.949C98.6473 105.817 99.1077 106.952 100.083 107.13H100.083Z" fill="#3C4328"/>
</g>
<path d="M162.923 116.461L169.424 120.756C169.424 120.756 193.291 53.382 157.664 54.67C131.821 55.6043 139.755 110.164 139.755 110.164L162.923 116.461Z" fill="#3C4328"/>
<mask id="mask5_4_39" style="mask-type:luminance" maskUnits="userSpaceOnUse" x="138" y="54" width="40" height="67">
<path fill-rule="evenodd" clip-rule="evenodd" d="M162.923 116.461L169.424 120.756C169.424 120.756 193.291 53.382 157.664 54.67C131.821 55.6043 139.755 110.164 139.755 110.164L162.923 116.461Z" fill="white"/>
</mask>
<g mask="url(#mask5_4_39)">
<path d="M135.65 82.3362C138.56 81.8214 141.477 81.3469 144.406 80.9516L143.935 81.0149C150.483 80.1355 157.109 79.6525 163.714 80.0489C165.441 80.1525 167.162 80.3182 168.878 80.546L168.407 80.4827C172.319 80.9922 176.171 81.8895 179.906 83.1612C180.957 83.5244 181.996 83.9214 183.021 84.3523L182.598 84.1736C184.041 84.783 185.453 85.461 186.833 86.2075C187.647 86.6497 188.801 86.4361 189.257 85.5715C189.694 84.7442 189.492 83.6185 188.622 83.1461C185.561 81.4953 182.343 80.1553 179.016 79.1459C175.658 78.1189 172.216 77.4409 168.738 76.982C165.301 76.5393 161.839 76.3334 158.374 76.3657C154.695 76.4022 151.02 76.6299 147.364 77.0477C143.585 77.4659 139.823 78.0328 136.077 78.6782C135.62 78.7568 135.164 78.8366 134.708 78.9175C134.294 78.9907 133.853 79.3826 133.648 79.7322C133.411 80.1461 133.347 80.637 133.47 81.0981C133.608 81.5271 133.874 81.9409 134.284 82.1576C134.704 82.3766 135.188 82.4399 135.65 82.3363V82.3362Z" fill="#3C4328"/>
<path d="M135.485 94.4238C139.906 93.8866 144.351 93.5714 148.803 93.4792C153.231 93.3876 157.657 93.5147 162.081 93.8605C164.594 94.0567 167.1 94.323 169.599 94.6593L169.128 94.596C173.336 95.164 177.512 95.9282 181.655 96.8884C182.837 97.1632 184.016 97.454 185.19 97.7608C186.086 97.9945 187.156 97.4648 187.371 96.5227C187.582 95.5963 187.093 94.5924 186.133 94.342C182.934 93.5075 179.708 92.791 176.454 92.1925C173.08 91.5729 169.687 91.0781 166.273 90.7081C162.992 90.3489 159.701 90.1101 156.399 89.9916C153.121 89.8741 149.841 89.8766 146.56 89.999C143.271 90.1222 139.989 90.3673 136.715 90.7342C136.305 90.7804 135.895 90.8284 135.485 90.8784C134.998 90.9375 134.592 91.0369 134.232 91.3976C133.902 91.7318 133.715 92.1815 133.712 92.6511C133.733 93.1095 133.884 93.585 134.232 93.9046C134.554 94.2003 135.03 94.4791 135.485 94.4238H135.485Z" fill="#3C4328"/>
</g>
<ellipse cx="113.384" cy="20.4853" rx="17.1676" ry="14.0248" transform="rotate(-25.2549 113.384 20.4853)" fill="#3C4328"/>
<ellipse cx="132.024" cy="35.3558" rx="19.292" ry="17.0082" transform="rotate(-25.253 132.024 35.3558)" fill="#3C4328"/>
<mask id="mask6_4_39" style="mask-type:luminance" maskUnits="userSpaceOnUse" x="113" y="17" width="38" height="36">
<ellipse cx="132.024" cy="35.3558" rx="19.292" ry="17.0082" transform="rotate(-25.253 132.024 35.3558)" fill="white"/>
</mask>
<g mask="url(#mask6_4_39)">
<path d="M98.443 18.7562C100.703 18.8586 102.949 18.3564 104.95 17.3013C107.034 16.6267 108.907 15.4232 110.386 13.8083C112.001 12.3287 113.204 10.4555 113.878 8.37165C114.933 6.3701 115.435 4.12338 115.333 1.86308L114.73 -2.62777C113.952 -5.447 112.455 -8.01573 110.386 -10.0821L106.968 -12.7236C104.382 -14.2385 101.439 -15.0348 98.443 -15.03C96.1832 -15.1324 93.9369 -14.6302 91.9357 -13.5751C89.8523 -12.9006 87.9794 -11.6971 86.5001 -10.0821C84.8855 -8.60252 83.6822 -6.72931 83.0078 -4.64549C81.9529 -2.64394 81.4508 -0.397223 81.5532 1.86308L82.1565 6.35393C82.9342 9.17316 84.431 11.7419 86.5001 13.8083L89.9184 16.4498C92.5037 17.9646 95.4468 18.7609 98.443 18.7562H98.443Z" fill="#3C4328"/>
</g>
<path d="M126.676 44.6602L131.5 26.4486C133.772 17.8704 126.695 9.69667 117.882 10.72L97.0868 13.1347C94.6774 13.4145 92.3676 14.3671 90.5727 15.999C86.1254 20.0422 80.3481 28.9384 93.0099 42.4121C110.885 61.4339 124.012 54.7157 124.012 54.7157L126.676 44.6603" fill="#3C4328"/>
<mask id="mask7_4_39" style="mask-type:luminance" maskUnits="userSpaceOnUse" x="85" y="10" width="47" height="46">
<path fill-rule="evenodd" clip-rule="evenodd" d="M126.676 44.6602L131.5 26.4486C133.772 17.8704 126.695 9.69667 117.882 10.72L97.0868 13.1347C94.6773 13.4145 92.3675 14.3671 90.5726 15.999C86.1254 20.0422 80.3481 28.9384 93.0098 42.4121C110.885 61.4339 124.012 54.7157 124.012 54.7157L126.676 44.6603" fill="white"/>
</mask>
<g mask="url(#mask7_4_39)">
</g>
<path d="M116.07 40.558L137.596 58.1611L122.817 75.9796L99.3111 53.8358L116.07 40.558Z" fill="#3C4328"/>
<mask id="mask8_4_39" style="mask-type:luminance" maskUnits="userSpaceOnUse" x="99" y="40" width="39" height="36">
<path fill-rule="evenodd" clip-rule="evenodd" d="M116.07 40.558L137.596 58.1611L122.817 75.9796L99.3111 53.8358L116.07 40.558Z" fill="white"/>
</mask>
<g mask="url(#mask8_4_39)">
<path d="M114.896 49.17C112.563 58.3467 103.526 57.4116 118.265 69.9156C127.104 77.4152 105.804 68.0553 105.804 68.0553L98.1045 54.2741L111.804 47.3645" fill="#3C4328"/>
</g>
<path d="M120.45 44.6573C120.45 44.6573 121.222 49.017 119.819 51.1506C118.416 53.2843 97.8613 58.5158 94.6253 54.2304C88.9583 46.7256 94.0866 23.5939 100.991 18.8427C107.896 14.0915 120.343 26.379 120.343 26.379L120.45 44.6573Z" fill="#3C4328"/>
<path fill-rule="evenodd" clip-rule="evenodd" d="M103.082 17.9281C91.5768 34.5694 104.19 31.955 104.19 31.955L103.082 17.9281Z" fill="#3C4328"/>
<path d="M103.082 17.9281C91.5768 34.5694 104.19 31.955 104.19 31.955" stroke="#3C4328" stroke-width="0.73425"/>
<path d="M128.412 42.5001L124.599 39.7717C124.599 39.7717 98.0155 38.6529 101.045 17.1903L124.866 18.0375L130.034 25.0599L128.412 42.5001Z" fill="#3C4328"/>
<path d="M114.926 38.7528C124.223 27.006 132.107 41.4509 119.23 44.9944L114.926 38.7528Z" fill="#3C4328"/>
<ellipse cx="107.014" cy="39.775" rx="4.95066" ry="4.44221" transform="rotate(-80.894 107.014 39.775)" fill="#3C4328"/>
<ellipse cx="92.9625" cy="37.5224" rx="2.36935" ry="2.12602" transform="rotate(-80.894 92.9625 37.5224)" fill="#3C4328"/>
<ellipse cx="95.2974" cy="33.0101" rx="1.7731" ry="1.591" transform="rotate(-80.894 95.2974 33.0101)" fill="#3C4328"/>
<path d="M97.2357 28.6075C94.7424 28.5372 96.4661 31.3849 99.6772 31.6233C102.888 31.8616 99.3419 28.6669 97.2357 28.6075Z" fill="#3C4328"/>
<path d="M95.7152 40.6634C95.8985 40.7389 96.0859 40.8037 96.2766 40.8576C96.3597 40.8806 96.4433 40.9012 96.5276 40.9189C96.5637 40.9265 96.5999 40.9328 96.6361 40.9401C96.775 40.9682 96.5694 40.9373 96.6953 40.9487C96.8525 40.9655 97.0106 40.9723 97.1687 40.9691C97.239 40.9666 97.309 40.9574 97.3792 40.9539C97.487 40.9484 97.382 40.9542 97.361 40.9579C97.4122 40.9488 97.4633 40.9396 97.5142 40.9281C97.6406 40.8996 97.7646 40.8615 97.8852 40.8142C97.9178 40.8013 97.95 40.7871 97.9825 40.7737C97.9664 40.7804 97.8652 40.8356 97.9565 40.7846C98.0228 40.7474 98.0901 40.714 98.1554 40.674C98.2596 40.6089 98.3601 40.5379 98.4564 40.4614C98.5254 40.4076 98.3485 40.5654 98.4459 40.469C98.4652 40.45 98.4865 40.4327 98.5063 40.4143C98.5608 40.3636 98.6137 40.3109 98.6651 40.2562C98.7532 40.1627 98.8346 40.063 98.9153 39.9617C99.0115 39.8411 98.891 40.0057 98.9411 39.927C98.981 39.8644 99.0242 39.8044 99.0639 39.7415C99.2001 39.5234 99.3215 39.2962 99.427 39.0617C99.448 39.0154 99.4673 38.9682 99.4885 38.9221C99.5433 38.8025 99.4459 39.0359 99.476 38.9534C99.4865 38.9245 99.4989 38.8963 99.5101 38.8677C99.5529 38.7578 99.5932 38.6469 99.6309 38.5348C99.6934 38.3495 99.7492 38.162 99.7983 37.9721C99.837 37.8226 99.8719 37.6719 99.9015 37.5202C99.9252 37.3988 99.9499 37.2192 99.9097 37.4968C99.9592 37.1549 100.166 36.8588 100.505 36.8591C100.664 36.8681 100.813 36.941 100.917 37.0613C101.022 37.1815 101.074 37.3389 101.061 37.4977C100.783 39.4156 99.7584 41.5915 97.93 42.121C97.0725 42.3693 96.1759 42.22 95.3709 41.8939C95.0612 41.7689 94.8976 41.4285 94.9935 41.1086C95.0809 40.7954 95.4251 40.5459 95.7153 40.6634L95.7152 40.6634Z" fill="#3C4328"/>
<path d="M121.28 37.8594C121.353 37.8294 121.43 37.8084 121.509 37.7966L121.297 37.8251C121.373 37.8166 121.45 37.8165 121.526 37.8248L121.313 37.7963C121.399 37.8086 121.483 37.8307 121.564 37.8622L121.373 37.7817C121.463 37.8197 121.548 37.8682 121.626 37.9262L121.464 37.8013C121.541 37.8607 121.61 37.9287 121.67 38.004L121.546 37.8424C121.597 37.9092 121.64 37.9815 121.675 38.0578L121.595 37.867C121.629 37.9495 121.652 38.0358 121.665 38.1241L121.637 37.9118C121.653 38.048 121.651 38.1858 121.633 38.3217L121.661 38.1093C121.62 38.3498 121.549 38.5844 121.451 38.8078L121.532 38.6169C121.468 38.766 121.399 38.9124 121.328 39.0583C121.225 39.2462 121.196 39.4659 121.248 39.6739C121.305 39.874 121.436 40.0449 121.615 40.1512C121.972 40.3403 122.513 40.2663 122.707 39.8647C123.105 39.0417 123.492 38.0945 123.034 37.2093C122.65 36.4654 121.659 35.9951 120.855 36.319C120.657 36.3809 120.488 36.511 120.378 36.6861C120.271 36.869 120.241 37.0869 120.295 37.2919C120.348 37.4968 120.481 37.672 120.664 37.7789C120.842 37.8727 121.085 37.938 121.28 37.8594L121.28 37.8594Z" fill="#3C4328"/>
<path d="M131.12 67.7446C165.378 97.799 194.286 28.7643 232.899 59.5532L218.09 14.9835C210.948 9.97338 204.274 11.4126 197.564 15.8114C180.063 27.2827 159.407 58.4797 132.465 48.3195L131.12 67.7446Z" fill="#3C4328"/>
<mask id="mask9_4_39" style="mask-type:luminance" maskUnits="userSpaceOnUse" x="131" y="11" width="102" height="65">
<path fill-rule="evenodd" clip-rule="evenodd" d="M131.12 67.7446C165.378 97.799 194.286 28.7643 232.899 59.5532L218.09 14.9835C210.948 9.97338 204.274 11.4126 197.564 15.8114C180.063 27.2827 159.407 58.4797 132.465 48.3195L131.12 67.7446Z" fill="white"/>
</mask>
<g mask="url(#mask9_4_39)">
<ellipse opacity="0.14" cx="165.058" cy="44.1754" rx="6.12795" ry="6.12914" fill="#3C4328"/>
<ellipse opacity="0.14" cx="193.834" cy="58.6017" rx="6.12795" ry="6.12914" fill="#3C4328"/>
<ellipse opacity="0.14" cx="193.291" cy="39.9809" rx="6.12795" ry="6.12914" fill="#3C4328"/>
<ellipse opacity="0.14" cx="159.672" cy="69.3679" rx="6.12795" ry="6.12914" fill="#3C4328"/>
<ellipse opacity="0.14" cx="134.265" cy="52.983" rx="6.12795" ry="6.12914" fill="#3C4328"/>
</g>
<path d="M201.895 78.9234C223.346 50.6961 208.925 16.0782 197.564 15.8115C243.373 -15.0627 267.277 60.3699 267.277 60.3699L201.895 78.9234Z" fill="#3C4328"/>
<mask id="mask10_4_39" style="mask-type:luminance" maskUnits="userSpaceOnUse" x="197" y="8" width="71" height="71">
<path fill-rule="evenodd" clip-rule="evenodd" d="M201.895 78.9234C223.346 50.6961 208.925 16.0782 197.564 15.8115C243.373 -15.0627 267.277 60.3699 267.277 60.3699L201.895 78.9234Z" fill="white"/>
</mask>
<g mask="url(#mask10_4_39)">
<ellipse opacity="0.14" cx="232.634" cy="19.7235" rx="6.12795" ry="6.12914" fill="#3C4328"/>
<ellipse opacity="0.14" cx="263.858" cy="60.4037" rx="6.12795" ry="6.12914" fill="#3C4328"/>
<ellipse opacity="0.14" cx="209.958" cy="60.5767" rx="6.12795" ry="6.12914" fill="#3C4328"/>
</g>
<path d="M125.012 47.8706C133.402 55.8669 135.682 58.1957 135.682 58.1957L139.321 56.8898C139.321 56.8898 135.371 41.9763 125.012 47.8706Z" fill="#3C4328"/>
<path d="M107.894 61.9216C87.3238 60.3307 108.565 89.3959 129.503 72.4735C149.613 56.2206 132.75 47.2667 132.75 47.2667C132.75 47.2667 135.263 60.9733 107.894 61.9216Z" fill="#3C4328"/>
<mask id="mask11_4_39" style="mask-type:luminance" maskUnits="userSpaceOnUse" x="99" y="47" width="41" height="31">
<path fill-rule="evenodd" clip-rule="evenodd" d="M107.894 61.9216C87.3238 60.3307 108.565 89.3959 129.503 72.4735C149.613 56.2206 132.75 47.2667 132.75 47.2667C132.75 47.2667 135.263 60.9733 107.894 61.9216Z" fill="white"/>
</mask>
<g mask="url(#mask11_4_39)">
<ellipse opacity="0.14" cx="121.225" cy="62.6298" rx="6.12795" ry="6.12914" fill="#3C4328"/>
<ellipse opacity="0.14" cx="113.384" cy="80.0993" rx="6.12795" ry="6.12914" fill="#3C4328"/>
</g>
<path d="M106.413 65.7989C103.802 67.0345 104.226 69.8305 105.275 70.8316C106.323 71.8327 109.187 75.9728 109.187 75.9728L97.5604 93.4525L99.1975 98.3639L109.01 95.9143C109.01 95.9143 115.168 76.8691 114.896 75.1141C114.703 73.8614 106.413 65.7989 106.413 65.7989Z" fill="#3C4328"/>
<path d="M142.261 114.845C141.078 115.588 112.126 100.894 109.596 94.0813C107.067 87.2687 107.493 94.2957 107.493 94.2957L94.9929 94.4692C94.9929 94.4692 117.18 145.446 150.309 138.123C160.092 135.961 165.443 129.856 168.125 122.326C169.424 120.756 164.269 117.351 164.269 117.351L143.914 110.164L142.498 111.611L142.261 114.845Z" fill="#3C4328"/>
<mask id="mask12_4_39" style="mask-type:luminance" maskUnits="userSpaceOnUse" x="94" y="91" width="75" height="48">
<path fill-rule="evenodd" clip-rule="evenodd" d="M142.261 114.845C141.078 115.588 112.126 100.894 109.596 94.0813C107.067 87.2687 107.493 94.2957 107.493 94.2957L94.9929 94.4692C94.9929 94.4692 117.18 145.446 150.309 138.123C160.092 135.961 165.443 129.856 168.125 122.326C169.424 120.756 164.269 117.351 164.269 117.351L143.914 110.164L142.498 111.611L142.261 114.845Z" fill="white"/>
</mask>
<g mask="url(#mask12_4_39)">
<path d="M114.938 96.1313L109.499 98.3639L109.596 94.0814L114.938 96.1313Z" fill="#3C4328"/>
<path d="M114.841 150.648C142.261 114.845 160.655 122.437 160.655 122.437L146.971 142.976L122.305 149.839" fill="#3C4328"/>
<path d="M88.361 146.693C90.1251 147.955 91.8956 149.208 93.6725 150.452C95.4497 151.696 97.2334 152.931 99.0234 154.157C100.806 155.378 102.595 156.589 104.391 157.792C106.194 159 108.003 160.198 109.819 161.387C111.627 162.571 113.441 163.746 115.262 164.912C115.49 165.059 115.719 165.205 115.947 165.351C117.918 166.626 120.192 167.352 122.537 167.454C127.204 168.301 132.005 167.021 135.632 163.965C137.553 162.724 139.125 161.012 140.197 158.991L141.984 154.757C142.828 151.672 142.828 148.416 141.984 145.331L140.197 141.097C138.656 138.468 136.467 136.278 133.838 134.737C132.009 133.569 130.186 132.391 128.368 131.204C126.551 130.017 124.74 128.821 122.936 127.615C121.139 126.415 119.348 125.206 117.564 123.987C115.772 122.764 113.987 121.531 112.208 120.289C110.437 119.053 108.672 117.807 106.914 116.553C106.693 116.395 106.473 116.237 106.252 116.08C104.282 114.805 102.007 114.078 99.6624 113.976C94.9956 113.13 90.1947 114.409 86.5675 117.466C84.6463 118.707 83.0747 120.419 82.0026 122.439L80.2159 126.674C79.3717 129.759 79.3717 133.014 80.2159 136.099L82.0026 140.334C83.5434 142.963 85.7326 145.152 88.361 146.693L88.361 146.693Z" fill="#3C4328"/>
</g>
<path d="M97.0555 97.1323C97.0555 97.1323 96.1528 96.351 94.9929 94.4692C93.8329 92.5873 87.9879 81.9471 97.2333 77.0985C97.2333 77.0985 94.0211 69.3006 93.0728 68.9355C93.0728 68.9355 81.4063 65.6422 80.9326 65.1258C80.4588 64.6094 77.8559 59.4647 80.1064 59.4077C82.3569 59.3507 97.9071 65.6731 97.9071 65.6731L110.188 77.5328L97.0555 97.1323Z" fill="#3C4328"/>
<mask id="mask13_4_39" style="mask-type:luminance" maskUnits="userSpaceOnUse" x="79" y="59" width="32" height="39">
<path fill-rule="evenodd" clip-rule="evenodd" d="M97.0555 97.1323C97.0555 97.1323 96.1528 96.351 94.9929 94.4692C93.8329 92.5873 87.9879 81.9471 97.2333 77.0985C97.2333 77.0985 94.0211 69.3006 93.0728 68.9355C93.0728 68.9355 81.4063 65.6422 80.9326 65.1258C80.4588 64.6094 77.8559 59.4647 80.1064 59.4077C82.3569 59.3507 97.9071 65.6731 97.9071 65.6731L110.188 77.5328L97.0555 97.1323Z" fill="white"/>
</mask>
<g mask="url(#mask13_4_39)">
<path d="M89.1825 86.0537C90.254 85.8113 105.159 79.8766 105.159 79.8766C105.159 79.8766 98.82 78.3539 98.2502 78.4691C97.6804 78.5843 90.3957 79.4955 90.3957 79.4955L87.9417 85.4609" fill="#3C4328"/>
</g>
<path d="M87.7066 71.0383C87.4502 74.8929 89.0456 76.4427 96.526 71.6241L102.73 74.6852L107.235 72.864C107.235 72.864 102.897 65.8967 99.326 65.7066C95.7547 65.5164 87.7066 71.0383 87.7066 71.0383Z" fill="#3C4328"/>
<path d="M93.6079 67.2096C94.9543 70.8199 94.7417 72.7588 101.745 70.6978L107.943 78.4691L111.439 75.4266C111.439 75.4266 109.41 67.0112 106.099 65.6427C102.788 64.2743 93.6079 67.2096 93.6079 67.2096Z" fill="#3C4328"/>
<path d="M139.531 108.395C139.531 108.395 158.857 106.336 169.424 120.756C169.424 120.756 172.626 127.337 166.375 126.297C160.125 125.258 152.001 116.281 142.261 114.845C132.521 113.408 139.531 108.395 139.531 108.395Z" fill="#3C4328"/>
<path d="M121.594 168.542C121.594 168.542 148.457 119.681 160.655 122.437C172.852 125.194 218.882 134.528 227.987 138.843C257.519 152.84 243.838 231.126 129.314 180.514L121.594 168.542Z" fill="#3C4328"/>
<mask id="mask14_4_39" style="mask-type:luminance" maskUnits="userSpaceOnUse" x="121" y="122" width="121" height="76">
<path fill-rule="evenodd" clip-rule="evenodd" d="M121.594 168.542C121.594 168.542 148.457 119.681 160.655 122.437C172.852 125.194 218.882 134.528 227.987 138.843C257.519 152.84 243.838 231.126 129.314 180.514L121.594 168.542Z" fill="white"/>
</mask>
<g mask="url(#mask14_4_39)">
<g opacity="0.1">
<path fill-rule="evenodd" clip-rule="evenodd" d="M89.2989 136.556H277.093H89.2989Z" fill="#3C4328"/>
<path d="M89.2989 136.556H277.093" stroke="#3C4328" stroke-width="2.02522"/>
</g>
<g opacity="0.1">
<path fill-rule="evenodd" clip-rule="evenodd" d="M89.6179 153.231H277.412H89.6179Z" fill="#3C4328"/>
<path d="M89.6179 153.231H277.412" stroke="#3C4328" stroke-width="2.02522"/>
</g>
<g opacity="0.1">
<path fill-rule="evenodd" clip-rule="evenodd" d="M89.9369 169.907H277.731H89.9369Z" fill="#3C4328"/>
<path d="M89.9369 169.907H277.731" stroke="#3C4328" stroke-width="2.02522"/>
</g>
<g opacity="0.1">
<path fill-rule="evenodd" clip-rule="evenodd" d="M90.2559 186.582H278.05H90.2559Z" fill="#3C4328"/>
<path d="M90.2559 186.582H278.05" stroke="#3C4328" stroke-width="2.02522"/>
</g>
<g opacity="0.1">
<path fill-rule="evenodd" clip-rule="evenodd" d="M184.975 245.4L181.475 62.4525L184.975 245.4Z" fill="#3C4328"/>
<path d="M184.975 245.4L181.475 62.4525" stroke="#3C4328" stroke-width="2.02522"/>
</g>
<g opacity="0.1">
<path fill-rule="evenodd" clip-rule="evenodd" d="M202.997 245.4L199.498 62.4525L202.997 245.4Z" fill="#3C4328"/>
<path d="M202.997 245.4L199.498 62.4525" stroke="#3C4328" stroke-width="2.02522"/>
</g>
<g opacity="0.1">
<path fill-rule="evenodd" clip-rule="evenodd" d="M221.02 245.4L217.52 62.4525L221.02 245.4Z" fill="#3C4328"/>
<path d="M221.02 245.4L217.52 62.4525" stroke="#3C4328" stroke-width="2.02522"/>
</g>
<g opacity="0.1">
<path fill-rule="evenodd" clip-rule="evenodd" d="M239.042 245.4L235.542 62.4525L239.042 245.4Z" fill="#3C4328"/>
<path d="M239.042 245.4L235.542 62.4525" stroke="#3C4328" stroke-width="2.02522"/>
</g>
<g opacity="0.1">
<path fill-rule="evenodd" clip-rule="evenodd" d="M130.909 245.4L127.409 62.4525L130.909 245.4Z" fill="#3C4328"/>
<path d="M130.909 245.4L127.409 62.4525" stroke="#3C4328" stroke-width="2.02522"/>
</g>
<g opacity="0.1">
<path fill-rule="evenodd" clip-rule="evenodd" d="M148.931 245.4L145.431 62.4525L148.931 245.4Z" fill="#3C4328"/>
<path d="M148.931 245.4L145.431 62.4525" stroke="#3C4328" stroke-width="2.02522"/>
</g>
<g opacity="0.1">
<path fill-rule="evenodd" clip-rule="evenodd" d="M166.953 245.4L163.453 62.4525L166.953 245.4Z" fill="#3C4328"/>
<path d="M166.953 245.4L163.453 62.4525" stroke="#3C4328" stroke-width="2.02522"/>
</g>
<path d="M179.748 153.231C179.465 154.164 179.493 155.456 179.493 155.456C179.493 155.456 152.492 194.465 184.155 202.501C215.817 210.537 156.347 213.16 156.347 213.16L132.413 186.582L179.493 155.456" fill="#3C4328"/>
</g>
<path d="M102.425 190.715C120.449 195.874 128.212 199.758 130.54 203.08C132.868 206.402 140.832 216.614 141.276 222.416C142.75 241.661 153.999 238.277 154.516 234.5C154.516 234.5 156.725 218.363 153.68 201.552C152.997 197.783 157.92 184.942 154.756 182.884C151.593 180.827 108.169 181.601 108.169 181.601L102.425 190.715Z" fill="#3C4328"/>
<mask id="mask15_4_39" style="mask-type:luminance" maskUnits="userSpaceOnUse" x="102" y="181" width="54" height="57">
<path fill-rule="evenodd" clip-rule="evenodd" d="M102.425 190.715C120.449 195.874 128.212 199.758 130.54 203.08C132.868 206.402 140.832 216.614 141.276 222.416C142.75 241.661 153.999 238.277 154.516 234.5C154.516 234.5 156.725 218.363 153.68 201.552C152.997 197.783 157.92 184.942 154.756 182.884C151.593 180.827 108.169 181.601 108.169 181.601L102.425 190.715Z" fill="white"/>
</mask>
<g mask="url(#mask15_4_39)">
<path d="M126.062 213.156C140.801 202.764 151.74 185.633 151.74 185.633L125.735 196.024L123.173 210.683" fill="#3C4328"/>
</g>
<path d="M141.213 207.499C142.528 215.925 141.214 216.326 141.471 217.484C141.728 218.642 148.911 221.308 151.441 218.15C153.97 214.991 150.023 201.727 150.023 201.727L141.213 207.499Z" fill="#3C4328"/>
<path d="M103.493 191.424C112.785 189.627 112.266 168.772 112.266 168.772C112.266 168.772 21.8816 71.5092 14.2483 123.593C8.88325 160.201 74.2489 190.324 74.2489 190.324L103.493 191.424Z" fill="#3C4328"/>
<mask id="mask16_4_39" style="mask-type:luminance" maskUnits="userSpaceOnUse" x="13" y="108" width="100" height="84">
<path fill-rule="evenodd" clip-rule="evenodd" d="M103.493 191.424C112.785 189.627 112.266 168.772 112.266 168.772C112.266 168.772 21.8816 71.5092 14.2483 123.593C8.88325 160.201 74.2489 190.324 74.2489 190.324L103.493 191.424Z" fill="white"/>
</mask>
<g mask="url(#mask16_4_39)">
<g opacity="0.1">
<path fill-rule="evenodd" clip-rule="evenodd" d="M-31.4214 115.794H156.373H-31.4214Z" fill="#3C4328"/>
<path d="M-31.4214 115.794H156.373" stroke="#3C4328" stroke-width="2.02522"/>
</g>
<g opacity="0.1">
<path fill-rule="evenodd" clip-rule="evenodd" d="M-31.1024 132.469H156.692H-31.1024Z" fill="#3C4328"/>
<path d="M-31.1024 132.469H156.692" stroke="#3C4328" stroke-width="2.02522"/>
</g>
<g opacity="0.1">
<path fill-rule="evenodd" clip-rule="evenodd" d="M-30.7834 149.144H157.011H-30.7834Z" fill="#3C4328"/>
<path d="M-30.7834 149.144H157.011" stroke="#3C4328" stroke-width="2.02522"/>
</g>
<g opacity="0.1">
<path fill-rule="evenodd" clip-rule="evenodd" d="M-30.4644 165.82H157.33H-30.4644Z" fill="#3C4328"/>
<path d="M-30.4644 165.82H157.33" stroke="#3C4328" stroke-width="2.02522"/>
</g>
<g opacity="0.1">
<path fill-rule="evenodd" clip-rule="evenodd" d="M-30.1454 182.495H157.649H-30.1454Z" fill="#3C4328"/>
<path d="M-30.1454 182.495H157.649" stroke="#3C4328" stroke-width="2.02522"/>
</g>
<g opacity="0.1">
<path fill-rule="evenodd" clip-rule="evenodd" d="M64.5739 241.313L61.0742 58.3653L64.5739 241.313Z" fill="#3C4328"/>
<path d="M64.5739 241.313L61.0742 58.3653" stroke="#3C4328" stroke-width="2.02522"/>
</g>
<g opacity="0.1">
<path fill-rule="evenodd" clip-rule="evenodd" d="M82.596 241.313L79.0963 58.3653L82.596 241.313Z" fill="#3C4328"/>
<path d="M82.596 241.313L79.0963 58.3653" stroke="#3C4328" stroke-width="2.02522"/>
</g>
<g opacity="0.1">
<path fill-rule="evenodd" clip-rule="evenodd" d="M100.618 241.313L97.1185 58.3653L100.618 241.313Z" fill="#3C4328"/>
<path d="M100.618 241.313L97.1185 58.3653" stroke="#3C4328" stroke-width="2.02522"/>
</g>
<g opacity="0.1">
<path fill-rule="evenodd" clip-rule="evenodd" d="M28.5295 241.313L25.0298 58.3653L28.5295 241.313Z" fill="#3C4328"/>
<path d="M28.5295 241.313L25.0298 58.3653" stroke="#3C4328" stroke-width="2.02522"/>
</g>
<g opacity="0.1">
<path fill-rule="evenodd" clip-rule="evenodd" d="M46.5517 241.313L43.0519 58.3653L46.5517 241.313Z" fill="#3C4328"/>
<path d="M46.5517 241.313L43.0519 58.3653" stroke="#3C4328" stroke-width="2.02522"/>
</g>
</g>
<path d="M90.9055 174.348C81.3028 178.641 63.9272 184.746 63.9821 184.74C64.0371 184.735 33.5884 176.543 30.6542 175.652C27.72 174.761 10.3556 175.797 7.33139 175.652C4.30719 175.507 4.04061 186.466 13.0249 185.211C13.0249 185.211 8.58396 184.869 7.95518 185.794C6.60843 187.775 10.9687 196.104 14.07 195.764C14.07 195.764 13.1512 200.546 19.4259 200.931C23.5946 201.186 64.2787 211.138 71.025 212.962C81.2469 215.725 129.472 188.777 129.472 188.777L90.9055 174.348Z" fill="#3C4328"/>
<mask id="mask17_4_39" style="mask-type:luminance" maskUnits="userSpaceOnUse" x="5" y="174" width="125" height="40">
<path fill-rule="evenodd" clip-rule="evenodd" d="M90.9055 174.348C81.3028 178.641 63.9272 184.746 63.9821 184.74C64.0371 184.735 33.5884 176.543 30.6542 175.652C27.72 174.761 10.3556 175.797 7.33139 175.652C4.30719 175.507 4.04061 186.466 13.0249 185.211C13.0249 185.211 8.58396 184.869 7.95518 185.794C6.60843 187.775 10.9687 196.104 14.07 195.764C14.07 195.764 13.1512 200.546 19.4259 200.931C23.5946 201.186 64.2787 211.138 71.025 212.962C81.2469 215.725 129.472 188.777 129.472 188.777L90.9055 174.348Z" fill="white"/>
</mask>
<g mask="url(#mask17_4_39)">
<path d="M-3.99164 179.193L2.83015 182.07L10.2006 185.178L13.025 185.211L19.7213 184.701" fill="#3C4328"/>
<path d="M9.11706 200.388L14.0699 195.764L26.1917 195.717L5.71552 193.754L9.11706 200.388Z" fill="#3C4328"/>
<path d="M84.0181 224.438C71.0249 212.962 85.5385 177.408 85.5385 177.408L101.883 202.95L90.6555 227.323" fill="#3C4328"/>
</g>
<path d="M85.6192 174.887C75.1962 210.086 104.143 221.674 104.143 221.674C104.143 221.674 166.42 184.653 178.453 156.849C190.487 129.045 152.397 106.383 132.566 133.814C112.734 161.245 85.6192 174.887 85.6192 174.887Z" fill="#3C4328"/>
<mask id="mask18_4_39" style="mask-type:luminance" maskUnits="userSpaceOnUse" x="83" y="121" width="98" height="101">
<path fill-rule="evenodd" clip-rule="evenodd" d="M85.6192 174.887C75.1962 210.086 104.143 221.674 104.143 221.674C104.143 221.674 166.42 184.653 178.453 156.849C190.487 129.045 152.397 106.383 132.566 133.814C112.734 161.245 85.6192 174.887 85.6192 174.887Z" fill="white"/>
</mask>
<g mask="url(#mask18_4_39)">
<g opacity="0.1">
<path fill-rule="evenodd" clip-rule="evenodd" d="M37.2579 120.814H225.052H37.2579Z" fill="#3C4328"/>
<path d="M37.2579 120.814H225.052" stroke="#3C4328" stroke-width="2.02522"/>
</g>
<g opacity="0.1">
<path fill-rule="evenodd" clip-rule="evenodd" d="M37.5769 137.489H225.371H37.5769Z" fill="#3C4328"/>
<path d="M37.5769 137.489H225.371" stroke="#3C4328" stroke-width="2.02522"/>
</g>
<g opacity="0.1">
<path fill-rule="evenodd" clip-rule="evenodd" d="M37.8959 154.165H225.69H37.8959Z" fill="#3C4328"/>
<path d="M37.8959 154.165H225.69" stroke="#3C4328" stroke-width="2.02522"/>
</g>
<g opacity="0.1">
<path fill-rule="evenodd" clip-rule="evenodd" d="M38.2148 170.84H226.009H38.2148Z" fill="#3C4328"/>
<path d="M38.2148 170.84H226.009" stroke="#3C4328" stroke-width="2.02522"/>
</g>
<g opacity="0.1">
<path fill-rule="evenodd" clip-rule="evenodd" d="M38.5339 187.515H226.328H38.5339Z" fill="#3C4328"/>
<path d="M38.5339 187.515H226.328" stroke="#3C4328" stroke-width="2.02522"/>
</g>
<g opacity="0.1">
<path fill-rule="evenodd" clip-rule="evenodd" d="M38.8528 204.191H226.647H38.8528Z" fill="#3C4328"/>
<path d="M38.8528 204.191H226.647" stroke="#3C4328" stroke-width="2.02522"/>
</g>
<g opacity="0.1">
<path fill-rule="evenodd" clip-rule="evenodd" d="M39.1719 220.866H226.966H39.1719Z" fill="#3C4328"/>
<path d="M39.1719 220.866H226.966" stroke="#3C4328" stroke-width="2.02522"/>
</g>
<g opacity="0.1">
<path fill-rule="evenodd" clip-rule="evenodd" d="M133.572 263.009L130.072 80.061L133.572 263.009Z" fill="#3C4328"/>
<path d="M133.572 263.009L130.072 80.061" stroke="#3C4328" stroke-width="2.02522"/>
</g>
<g opacity="0.1">
<path fill-rule="evenodd" clip-rule="evenodd" d="M151.594 263.009L148.095 80.061L151.594 263.009Z" fill="#3C4328"/>
<path d="M151.594 263.009L148.095 80.061" stroke="#3C4328" stroke-width="2.02522"/>
</g>
<g opacity="0.1">
<path fill-rule="evenodd" clip-rule="evenodd" d="M169.616 263.009L166.117 80.061L169.616 263.009Z" fill="#3C4328"/>
<path d="M169.616 263.009L166.117 80.061" stroke="#3C4328" stroke-width="2.02522"/>
</g>
<g opacity="0.1">
<path fill-rule="evenodd" clip-rule="evenodd" d="M97.5278 263.009L94.0281 80.061L97.5278 263.009Z" fill="#3C4328"/>
<path d="M97.5278 263.009L94.0281 80.061" stroke="#3C4328" stroke-width="2.02522"/>
</g>
<g opacity="0.1">
<path fill-rule="evenodd" clip-rule="evenodd" d="M115.55 263.009L112.05 80.061L115.55 263.009Z" fill="#3C4328"/>
<path d="M115.55 263.009L112.05 80.061" stroke="#3C4328" stroke-width="2.02522"/>
</g>
</g>
<path d="M65.8865 91.5362L79.599 79.5577C82.3225 78.9907 82.9713 82.4526 82.8223 83.8278C82.6733 85.2031 69.635 98.7558 69.635 98.7558" fill="#3C4328"/>
<mask id="mask19_4_39" style="mask-type:luminance" maskUnits="userSpaceOnUse" x="65" y="79" width="18" height="20">
<path fill-rule="evenodd" clip-rule="evenodd" d="M65.8865 91.5362L79.599 79.5577C82.3225 78.9908 82.9713 82.4526 82.8223 83.8278C82.6733 85.2031 69.635 98.7558 69.635 98.7558" fill="white"/>
</mask>
<g mask="url(#mask19_4_39)">
<path d="M70.4434 92.5745C70.7454 92.456 79.4202 84.6902 79.4202 84.6902L74.0495 83.8603L70.2902 90.9239" fill="#3C4328"/>
</g>
<path d="M22.885 49.8803L19.1822 39.2697C19.1822 39.2697 26.917 40.5864 29.3857 46.1981C31.8545 51.8098 22.885 49.8803 22.885 49.8803Z" fill="#3C4328"/>
<path d="M7.23797 54.0237L4.55005 46.5258C4.55005 46.5258 16.174 43.522 27.5658 45.822L25.0155 51.4845L7.23797 54.0237Z" fill="#3C4328"/>
<path d="M7.46878 49.4472L6.31842 44.7686C6.31842 44.7686 21.7464 41.6676 27.5658 45.8219C33.3851 49.9763 28.8519 51.8222 28.8519 51.8222L7.46878 49.4472Z" fill="#3C4328"/>
<path d="M10.7106 47.5387L8.57111 42.4145C8.57111 42.4145 19.4892 39.2385 27.5658 45.8219C35.6423 52.4054 27.2453 53.3821 27.2453 53.3821L10.7106 47.5387Z" fill="#3C4328"/>
<path d="M1.85284 50.778L0.33842 50.1127L0.264648 49.5284C0.264648 49.5284 17.4888 43.3146 28.0002 46.5237L28.1802 47.3597L1.85284 50.778Z" fill="#3C4328"/>
<path d="M41.8262 46.7067L36.4814 42.7952C36.4814 42.7952 64.7738 30.4375 65.3244 22.9753L101.035 67.9012L88.6955 83.4038L41.8262 46.7067Z" fill="#3C4328"/>
<path d="M28.1566 47.2498L28.0002 46.5237C28.0002 46.5237 28.7205 44.9664 30.5354 45.9444C32.0797 46.7767 29.5307 47.7162 29.5307 47.7162L28.1566 47.2498Z" fill="#3C4328"/>
<path d="M34.9308 51.203L30.5354 45.9445L66.9861 29.2408L105.233 76.3988L104.347 80.0992L34.9308 51.203Z" fill="#3C4328"/>
<path d="M0.33844 50.1127C0.33844 50.1127 14.0423 44.8626 28.0975 46.8306L61.7731 88.4476L40.123 93.3182L0.33844 50.1127Z" fill="#3C4328"/>
<mask id="mask20_4_39" style="mask-type:luminance" maskUnits="userSpaceOnUse" x="0" y="46" width="62" height="48">
<path fill-rule="evenodd" clip-rule="evenodd" d="M0.33844 50.1127C0.33844 50.1127 14.0423 44.8626 28.0975 46.8306L61.7731 88.4476L40.123 93.3182L0.33844 50.1127Z" fill="white"/>
</mask>
<g mask="url(#mask20_4_39)">
<path d="M21.0269 96.2964C24.1733 96.0799 27.3228 95.9183 30.4755 95.8117C33.6298 95.7053 36.7854 95.6543 39.9421 95.6586C41.715 95.6609 43.4876 95.6808 45.2601 95.718C47.0733 95.745 48.7123 94.6423 49.3708 92.9524C49.6517 92.4194 49.7854 91.821 49.7582 91.2191L49.5975 90.0231C49.3904 89.2723 48.9918 88.5882 48.4407 88.0379L47.5304 87.3344C46.8419 86.931 46.0582 86.7189 45.2602 86.7202C42.1035 86.6541 38.9464 86.6431 35.7887 86.6871C32.6339 86.7313 29.4805 86.8309 26.3285 86.9857C24.5603 87.0726 22.7932 87.1769 21.027 87.2986C19.8443 87.3478 18.7174 87.8147 17.8464 88.6163C17.0449 89.4875 16.5781 90.6147 16.5289 91.7975L16.6896 92.9935C16.8967 93.7443 17.2953 94.4284 17.8464 94.9787L18.7567 95.6822C19.4452 96.0856 20.229 96.2977 21.0269 96.2964Z" fill="#3C4328"/>
</g>
<path d="M65.0196 34.6011L64.8847 32.7937L65.151 31.947C65.151 31.947 37.3412 42.216 30.5354 45.9444C30.1338 46.3717 39.7522 49.9835 39.7522 49.9835L65.0196 34.6011Z" fill="#3C4328"/>
<path d="M66.4544 37.4626L64.8213 32.7389L65.0678 31.9549L105.375 79.2909L105.16 79.8746L66.4544 37.4626Z" fill="#3C4328"/>
<path d="M31.1131 47.9344L30.5524 46.0792L64.8847 32.7936L105.159 79.8766L61.8621 89.1528L31.1131 47.9344Z" fill="#3C4328"/>
<mask id="mask21_4_39" style="mask-type:luminance" maskUnits="userSpaceOnUse" x="30" y="32" width="76" height="58">
<path fill-rule="evenodd" clip-rule="evenodd" d="M31.1131 47.9344L30.5524 46.0792L64.8847 32.7936L105.159 79.8766L61.8621 89.1528L31.1131 47.9344Z" fill="white"/>
</mask>
<g mask="url(#mask21_4_39)">
<path d="M111.366 54.1245C108.812 57.2238 106.125 60.2065 103.305 63.0725C100.495 65.9275 97.564 68.6565 94.5127 71.2596C92.7826 72.736 91.0171 74.1695 89.2164 75.5601L90.1267 74.8566C84.905 78.887 79.4066 82.5456 73.6723 85.8053C70.793 87.4413 67.8581 88.9739 64.8677 90.4032C61.5758 91.9764 58.2262 93.4242 54.9063 94.9367C51.1742 96.637 47.4748 98.4252 43.9625 100.55C42.9618 101.156 42.2244 102.116 41.8954 103.239C41.7088 103.819 41.681 104.438 41.8151 105.033C41.8411 105.628 42.0253 106.205 42.3489 106.705C42.9681 107.666 43.8901 108.512 45.037 108.773C46.2082 109.04 47.4518 108.955 48.503 108.319C53.5445 105.269 58.959 102.923 64.3234 100.513C69.3668 98.2482 74.3238 95.8271 79.1127 93.0589C83.7279 90.3912 88.1877 87.4629 92.4703 84.2883C97.0242 80.9306 101.384 77.3171 105.529 73.4654C109.4 69.8508 113.057 66.0143 116.484 61.9754C116.902 61.4823 117.316 60.9861 117.727 60.4869C118.529 59.6157 118.996 58.4886 119.045 57.3057C119.045 56.2023 118.555 54.8842 117.727 54.1245C116.87 53.3375 115.745 52.7531 114.547 52.8068C113.422 52.8572 112.113 53.2181 111.366 54.1245V54.1245Z" fill="#3C4328"/>
</g>
<path d="M30.5524 46.0793L61.8621 89.1529L57.8018 90.924L27.9081 46.6795C27.9081 46.6795 28.5401 47.5863 30.5524 46.0793Z" fill="#3C4328"/>
<path d="M71.7919 95.3205C71.7006 94.5642 71.3804 94.0926 70.9079 93.8269C70.838 93.6935 70.7678 93.5601 70.6926 93.4265C73.4484 88.2586 77.8625 79.7856 77.7341 78.7692C77.5479 77.2946 76.087 73.8162 73.5844 75.0313L65.5632 87.1132C65.3115 86.8675 65.0581 86.625 64.8031 86.3859C67.5091 81.2623 70.9638 74.5041 70.85 73.603C70.6638 72.1284 69.203 68.6501 66.7002 69.8652L58.9691 81.5101C57.1407 80.1324 55.8673 79.2921 55.8673 79.2921C55.8673 79.2921 51.9398 63.014 51.3259 61.5313C50.0765 58.5141 48.9916 57.6085 45.5402 59.4004L47.9119 78.1824C47.9119 78.1824 54.466 97.1324 59.018 100.976C59.018 100.976 75.4733 150.291 95.528 149.525C134.034 148.053 72.4877 101.085 71.7919 95.3205Z" fill="#3C4328"/>
<mask id="mask22_4_39" style="mask-type:luminance" maskUnits="userSpaceOnUse" x="45" y="58" width="64" height="92">
<path fill-rule="evenodd" clip-rule="evenodd" d="M71.7919 95.3205C71.7006 94.5642 71.3804 94.0926 70.9079 93.8269C70.838 93.6935 70.7678 93.5601 70.6926 93.4265C73.4484 88.2586 77.8625 79.7856 77.7341 78.7692C77.5479 77.2946 76.087 73.8162 73.5844 75.0313L65.5632 87.1132C65.3115 86.8675 65.0581 86.625 64.8031 86.3859C67.5091 81.2623 70.9638 74.5041 70.85 73.603C70.6638 72.1284 69.203 68.6501 66.7002 69.8652L58.9691 81.5101C57.1407 80.1324 55.8673 79.2921 55.8673 79.2921C55.8673 79.2921 51.9398 63.014 51.3259 61.5313C50.0765 58.5141 48.9916 57.6085 45.5402 59.4004L47.9119 78.1824C47.9119 78.1824 54.466 97.1324 59.018 100.976C59.018 100.976 75.4733 150.291 95.528 149.525C134.034 148.053 72.4877 101.085 71.7919 95.3205Z" fill="white"/>
</mask>
<g mask="url(#mask22_4_39)">
<path d="M56.6001 75.0868L54.9677 75.5941C54.9677 75.5941 55.3003 80.3035 55.9946 81.6076C56.6889 82.9118 57.9917 84.216 57.9917 84.216L60.0312 79.4955" fill="#3C4328"/>
<path d="M71.1933 77.6951L66.2658 88.6827L64.803 86.386L66.3452 85.1051" fill="#3C4328"/>
<path d="M79.9648 100.4L69.6351 98.7557L73.0794 93.5823L79.6138 101.17" fill="#3C4328"/>
<path d="M44.8347 65.279C44.8347 65.279 48.9323 64.9984 49.3286 64.605C49.7249 64.2115 48.1767 56.717 48.1767 56.717L43.3556 58.4849L43.3676 65.7017" fill="#3C4328"/>
<path d="M67.1056 68.5016C66.7002 69.8652 63.9355 74.0294 63.9355 74.0294C63.9355 74.0294 66.2054 76.2442 68.0868 75.0638C69.9683 73.8835 71.4922 69.0967 71.4922 69.0967" fill="#3C4328"/>
<path d="M74.1086 74.0803L71.1933 77.6951C71.1933 77.6951 73.8062 80.6069 75.6739 80.0993C77.5415 79.5917 79.8108 74.6852 79.8108 74.6852" fill="#3C4328"/>
<path d="M39.6612 135.672L42.2482 140.91L44.8352 146.147L46.2888 149.09C47.2538 150.909 48.6681 152.45 50.3972 153.567C53.6617 156.317 57.9825 157.469 62.1826 156.707C64.2927 156.615 66.34 155.961 68.1133 154.814L71.3417 152.319C73.2958 150.368 74.7095 147.942 75.4439 145.279L76.0137 141.038C76.0182 138.207 75.2663 135.427 73.8358 132.985L71.2488 127.748L68.6618 122.51L67.2082 119.567C66.2432 117.749 64.8289 116.208 63.0998 115.091C59.8353 112.34 55.5145 111.189 51.3144 111.95C49.2043 112.043 47.157 112.696 45.3837 113.844L42.1553 116.338C40.2012 118.29 38.7875 120.716 38.0531 123.379L37.4833 127.62C37.4788 130.45 38.2307 133.23 39.6612 135.672Z" fill="#3C4328"/>
</g>
<path d="M63.1875 185.095C63.0918 186.058 63.2066 187.029 63.5237 187.942C63.5867 188.151 63.7236 188.329 63.9086 188.443C64.1041 188.555 64.336 188.585 64.5539 188.527C64.9625 188.395 65.2925 187.94 65.1388 187.497C65.006 187.114 64.9106 186.72 64.854 186.319L64.8839 186.541C64.8197 186.062 64.8125 185.577 64.8624 185.095C64.8624 184.873 64.7741 184.66 64.6171 184.503C64.46 184.346 64.247 184.258 64.0249 184.258C63.8028 184.258 63.5898 184.346 63.4328 184.503C63.2854 184.667 63.1988 184.876 63.1875 185.095V185.095Z" fill="#3C4328"/>
<path d="M67.5286 186.457C67.9667 186.457 68.3863 186.072 68.3661 185.619C68.3583 185.16 67.9879 184.789 67.5286 184.782C67.0906 184.782 66.6709 185.167 66.6912 185.619C66.699 186.079 67.0694 186.449 67.5286 186.457Z" fill="#3C4328"/>
<path d="M147.657 225.861L148.834 224.091C149.006 223.796 148.983 223.427 148.775 223.157C148.567 222.887 148.217 222.77 147.888 222.86C147.681 222.925 147.504 223.062 147.388 223.245L146.211 225.016C146.039 225.31 146.062 225.679 146.27 225.949C146.477 226.219 146.828 226.337 147.156 226.246C147.363 226.181 147.541 226.045 147.657 225.861Z" fill="#3C4328"/>
<path d="M139.339 75.0911C138.831 76.2078 138.465 77.384 138.251 78.592C138.044 79.7953 137.956 81.0161 137.988 82.2366C138.052 84.6745 138.519 87.0967 139.121 89.4537C139.451 90.7446 139.825 92.0234 140.208 93.2992C140.291 93.5807 140.476 93.8212 140.727 93.9736C140.99 94.1247 141.303 94.1656 141.596 94.0874C142.167 93.9026 142.566 93.3048 142.384 92.6992C141.749 90.5835 141.135 88.4562 140.715 86.2856C140.596 85.6757 140.495 85.0629 140.411 84.4471L140.452 84.7471C140.218 82.9865 140.15 81.1983 140.384 79.4339L140.344 79.7339C140.503 78.5294 140.819 77.3509 141.284 76.2288L141.171 76.4984C141.209 76.4086 141.247 76.3193 141.287 76.2303C141.415 75.9445 141.487 75.6748 141.401 75.3607C141.321 75.078 141.135 74.8366 140.882 74.6863C140.619 74.5339 140.306 74.4929 140.013 74.5726C139.751 74.6574 139.456 74.8286 139.339 75.0912L139.339 75.0911Z" fill="#3C4328"/>
<path d="M178.84 154.512C178.595 155.416 178.289 156.302 177.924 157.165L178.038 156.895C177.472 158.229 176.773 159.503 175.952 160.697C175.718 161.038 175.474 161.372 175.221 161.699L175.397 161.471C174.497 162.634 173.484 163.704 172.373 164.668C172.058 164.94 171.736 165.203 171.407 165.457L171.635 165.281C170.558 166.111 169.406 166.839 168.193 167.454C167.845 167.658 167.632 168.032 167.634 168.435C167.636 168.838 167.853 169.21 168.204 169.409C168.554 169.609 168.984 169.607 169.332 169.403C173.749 167.14 177.321 163.515 179.518 159.064C180.14 157.797 180.642 156.474 181.016 155.112C181.093 154.818 181.052 154.507 180.903 154.242C180.674 153.851 180.232 153.634 179.782 153.693C179.332 153.752 178.961 154.074 178.84 154.512L178.84 154.512Z" fill="#3C4328"/>
</svg>
